<svg width="16" height="16" viewBox="0 0 18 17" fill="none" xmlns="http://www.w3.org/2000/svg">
<path d="M9.28125 7.125H13.2188C13.3594 7.125 13.5 7.01953 13.5 6.84375V6.28125C13.5 6.14062 13.3594 6 13.2188 6H9.28125C9.10547 6 9 6.14062 9 6.28125V6.84375C9 7.01953 9.10547 7.125 9.28125 7.125ZM9.28125 10.5H15.4688C15.6094 10.5 15.75 10.3945 15.75 10.2188V9.65625C15.75 9.51562 15.6094 9.375 15.4688 9.375H9.28125C9.10547 9.375 9 9.51562 9 9.65625V10.2188C9 10.3945 9.10547 10.5 9.28125 10.5ZM9.28125 3.75H10.9688C11.1094 3.75 11.25 3.64453 11.25 3.46875V2.90625C11.25 2.76562 11.1094 2.625 10.9688 2.625H9.28125C9.10547 2.625 9 2.76562 9 2.90625V3.46875C9 3.64453 9.10547 3.75 9.28125 3.75ZM17.7188 12.75H9.28125C9.10547 12.75 9 12.8906 9 13.0312V13.5938C9 13.7695 9.10547 13.875 9.28125 13.875H17.7188C17.8594 13.875 18 13.7695 18 13.5938V13.0312C18 12.8906 17.8594 12.75 17.7188 12.75ZM4.21875 0.515625C4.14844 0.445312 4.04297 0.410156 3.9375 0.410156C3.79688 0.410156 3.69141 0.445312 3.62109 0.515625L0.667969 3.39844C0.597656 3.50391 0.527344 3.60938 0.527344 3.71484C0.527344 3.82031 0.597656 3.92578 0.667969 3.99609L0.878906 4.20703C0.949219 4.27734 1.05469 4.34766 1.16016 4.34766C1.26562 4.34766 1.37109 4.27734 1.47656 4.20703L3.375 2.34375V15.8438C3.375 16.0195 3.48047 16.125 3.65625 16.125H4.21875C4.35938 16.125 4.5 16.0195 4.5 15.8438V2.37891L6.36328 4.20703C6.46875 4.27734 6.57422 4.3125 6.67969 4.3125C6.78516 4.3125 6.89062 4.27734 6.96094 4.20703L7.17188 3.99609C7.24219 3.92578 7.3125 3.82031 7.3125 3.71484C7.3125 3.57422 7.24219 3.46875 7.17188 3.39844L4.21875 0.515625Z" fill="#444444"/>
</svg>
